HIERARCHY
ROOT mixamorig:Hips
{
	OFFSET 0.000000 201.639420 0.000000
	CHANNELS 6 Xposition Yposition Zposition Xrotation Yrotation Zrotation
	JOINT mixamorig:Spine
	{
		OFFSET 0.006200 19.524994 -2.481800
		CHANNELS 3 Xrotation Yrotation Zrotation
		JOINT mixamorig:Spine1
		{
			OFFSET -0.000900 22.835007 -2.825400
			CHANNELS 3 Xrotation Yrotation Zrotation
			JOINT mixamorig:Spine2
			{
				OFFSET -0.020600 26.552490 -3.193300
				CHANNELS 3 Xrotation Yrotation Zrotation
				JOINT mixamorig:Neck
				{
					OFFSET -0.060000 30.701813 1.352200
					CHANNELS 3 Xrotation Yrotation Zrotation
					JOINT mixamorig:Head
					{
						OFFSET -0.087200 22.547607 3.670900
						CHANNELS 3 Xrotation Yrotation Zrotation
						JOINT mixamorig:HeadTop_End
						{
							OFFSET -0.830600 40.355194 7.893500
							CHANNELS 3 Xrotation Yrotation Zrotation
							End Site
							{
								OFFSET 0.000000 30.592346 0.000000
							}
						}
						JOINT mixamorig:RightEye
						{
							OFFSET -6.302100 18.118591 16.197100
							CHANNELS 3 Xrotation Yrotation Zrotation
							End Site
							{
								OFFSET 0.000000 30.592346 0.000000
							}
						}
						JOINT mixamorig:LeftEye
						{
							OFFSET 6.741500 18.382690 16.401899
							CHANNELS 3 Xrotation Yrotation Zrotation
							End Site
							{
								OFFSET 0.000000 30.592346 0.000000
							}
						}
					}
				}
				JOINT mixamorig:LeftShoulder
				{
					OFFSET 11.924900 18.230499 1.425400
					CHANNELS 3 Xrotation Yrotation Zrotation
					JOINT mixamorig:LeftArm
					{
						OFFSET 25.435989 -0.697632 -5.229300
						CHANNELS 3 Xrotation Yrotation Zrotation
						JOINT mixamorig:LeftForeArm
						{
							OFFSET 54.684776 0.000000 0.000000
							CHANNELS 3 Xrotation Yrotation Zrotation
							JOINT mixamorig:LeftHand
							{
								OFFSET 55.098175 0.000000 0.000000
								CHANNELS 3 Xrotation Yrotation Zrotation
								JOINT mixamorig:LeftHandMiddle1
								{
									OFFSET 23.369751 0.000000 0.000000
									CHANNELS 3 Xrotation Yrotation Zrotation
									JOINT mixamorig:LeftHandMiddle2
									{
										OFFSET 6.378677 0.000000 0.000000
										CHANNELS 3 Xrotation Yrotation Zrotation
										JOINT mixamorig:LeftHandMiddle3
										{
											OFFSET 6.148331 0.000000 0.000000
											CHANNELS 3 Xrotation Yrotation Zrotation
											JOINT mixamorig:LeftHandMiddle4
											{
												OFFSET 6.582504 0.000000 0.000000
												CHANNELS 3 Xrotation Yrotation Zrotation
												End Site
												{
													OFFSET -1.168900 6.395691 1.028606
												}
											}
										}
									}
								}
								JOINT mixamorig:LeftHandThumb1
								{
									OFFSET 7.235672 -3.848206 5.434273
									CHANNELS 3 Xrotation Yrotation Zrotation
									JOINT mixamorig:LeftHandThumb2
									{
										OFFSET 6.568451 -3.792297 3.792300
										CHANNELS 3 Xrotation Yrotation Zrotation
										JOINT mixamorig:LeftHandThumb3
										{
											OFFSET 6.063080 -3.500519 3.500518
											CHANNELS 3 Xrotation Yrotation Zrotation
											JOINT mixamorig:LeftHandThumb4
											{
												OFFSET 4.793182 -2.767334 2.767349
												CHANNELS 3 Xrotation Yrotation Zrotation
												End Site
												{
													OFFSET 0.101639 6.054260 1.275483
												}
											}
										}
									}
								}
								JOINT mixamorig:LeftHandIndex1
								{
									OFFSET 23.101074 -0.309540 4.992809
									CHANNELS 3 Xrotation Yrotation Zrotation
									JOINT mixamorig:LeftHandIndex2
									{
										OFFSET 6.226883 0.000000 0.000000
										CHANNELS 3 Xrotation Yrotation Zrotation
										JOINT mixamorig:LeftHandIndex3
										{
											OFFSET 6.094330 0.000000 0.000000
											CHANNELS 3 Xrotation Yrotation Zrotation
											JOINT mixamorig:LeftHandIndex4
											{
												OFFSET 5.482605 0.000000 0.000000
												CHANNELS 3 Xrotation Yrotation Zrotation
												End Site
												{
													OFFSET -1.427902 5.233032 0.797164
												}
											}
										}
									}
								}
								JOINT mixamorig:LeftHandRing1
								{
									OFFSET 22.299240 0.021149 -3.964172
									CHANNELS 3 Xrotation Yrotation Zrotation
									JOINT mixamorig:LeftHandRing2
									{
										OFFSET 6.321869 0.000000 0.000000
										CHANNELS 3 Xrotation Yrotation Zrotation
										JOINT mixamorig:LeftHandRing3
										{
											OFFSET 5.899796 0.000000 0.000000
											CHANNELS 3 Xrotation Yrotation Zrotation
											JOINT mixamorig:LeftHandRing4
											{
												OFFSET 6.517899 0.000000 0.000000
												CHANNELS 3 Xrotation Yrotation Zrotation
												End Site
												{
													OFFSET -1.637299 6.232208 0.980890
												}
											}
										}
									}
								}
								JOINT mixamorig:LeftHandPinky1
								{
									OFFSET 20.463791 -0.302338 -8.562233
									CHANNELS 3 Xrotation Yrotation Zrotation
									JOINT mixamorig:LeftHandPinky2
									{
										OFFSET 6.908646 0.000000 0.000000
										CHANNELS 3 Xrotation Yrotation Zrotation
										JOINT mixamorig:LeftHandPinky3
										{
											OFFSET 4.622849 0.000000 0.000000
											CHANNELS 3 Xrotation Yrotation Zrotation
											JOINT mixamorig:LeftHandPinky4
											{
												OFFSET 5.216080 0.000000 0.000000
												CHANNELS 3 Xrotation Yrotation Zrotation
												End Site
												{
													OFFSET -0.606308 5.116241 0.814926
												}
											}
										}
									}
								}
							}
						}
					}
				}
				JOINT mixamorig:RightShoulder
				{
					OFFSET -12.001300 18.284088 1.348900
					CHANNELS 3 Xrotation Yrotation Zrotation
					JOINT mixamorig:RightArm
					{
						OFFSET -25.308500 -0.751312 -5.164599
						CHANNELS 3 Xrotation Yrotation Zrotation
						JOINT mixamorig:RightForeArm
						{
							OFFSET -54.684429 0.000000 0.000000
							CHANNELS 3 Xrotation Yrotation Zrotation
							JOINT mixamorig:RightHand
							{
								OFFSET -55.150291 0.000000 0.000000
								CHANNELS 3 Xrotation Yrotation Zrotation
								JOINT mixamorig:RightHandMiddle1
								{
									OFFSET -23.317566 0.000000 0.000000
									CHANNELS 3 Xrotation Yrotation Zrotation
									JOINT mixamorig:RightHandMiddle2
									{
										OFFSET -6.378403 0.000000 0.000000
										CHANNELS 3 Xrotation Yrotation Zrotation
										JOINT mixamorig:RightHandMiddle3
										{
											OFFSET -6.148193 0.000000 0.000000
											CHANNELS 3 Xrotation Yrotation Zrotation
											JOINT mixamorig:RightHandMiddle4
											{
												OFFSET -6.583389 0.000000 0.000000
												CHANNELS 3 Xrotation Yrotation Zrotation
												End Site
												{
													OFFSET 1.171692 6.395905 1.029786
												}
											}
										}
									}
								}
								JOINT mixamorig:RightHandThumb1
								{
									OFFSET -7.190521 -3.860474 5.435846
									CHANNELS 3 Xrotation Yrotation Zrotation
									JOINT mixamorig:RightHandThumb2
									{
										OFFSET -6.567429 -3.791718 3.791708
										CHANNELS 3 Xrotation Yrotation Zrotation
										JOINT mixamorig:RightHandThumb3
										{
											OFFSET -6.062469 -3.500153 3.500166
											CHANNELS 3 Xrotation Yrotation Zrotation
											JOINT mixamorig:RightHandThumb4
											{
												OFFSET -4.792618 -2.767029 2.767022
												CHANNELS 3 Xrotation Yrotation Zrotation
												End Site
												{
													OFFSET -0.100327 6.053253 1.276754
												}
											}
										}
									}
								}
								JOINT mixamorig:RightHandIndex1
								{
									OFFSET -23.048981 -0.310791 4.992554
									CHANNELS 3 Xrotation Yrotation Zrotation
									JOINT mixamorig:RightHandIndex2
									{
										OFFSET -6.227539 0.000000 0.000000
										CHANNELS 3 Xrotation Yrotation Zrotation
										JOINT mixamorig:RightHandIndex3
										{
											OFFSET -6.095047 0.000000 0.000000
											CHANNELS 3 Xrotation Yrotation Zrotation
											JOINT mixamorig:RightHandIndex4
											{
												OFFSET -5.484772 0.000000 0.000000
												CHANNELS 3 Xrotation Yrotation Zrotation
												End Site
												{
													OFFSET 1.420593 5.237305 0.797056
												}
											}
										}
									}
								}
								JOINT mixamorig:RightHandRing1
								{
									OFFSET -22.246323 0.020569 -3.963762
									CHANNELS 3 Xrotation Yrotation Zrotation
									JOINT mixamorig:RightHandRing2
									{
										OFFSET -6.322128 0.000000 0.000000
										CHANNELS 3 Xrotation Yrotation Zrotation
										JOINT mixamorig:RightHandRing3
										{
											OFFSET -5.900024 0.000000 0.000000
											CHANNELS 3 Xrotation Yrotation Zrotation
											JOINT mixamorig:RightHandRing4
											{
												OFFSET -6.518356 0.000000 0.000000
												CHANNELS 3 Xrotation Yrotation Zrotation
												End Site
												{
													OFFSET 1.636398 6.232697 0.982186
												}
											}
										}
									}
								}
								JOINT mixamorig:RightHandPinky1
								{
									OFFSET -20.411011 -0.303314 -8.561701
									CHANNELS 3 Xrotation Yrotation Zrotation
									JOINT mixamorig:RightHandPinky2
									{
										OFFSET -6.907349 0.000000 0.000000
										CHANNELS 3 Xrotation Yrotation Zrotation
										JOINT mixamorig:RightHandPinky3
										{
											OFFSET -4.623840 0.000000 0.000000
											CHANNELS 3 Xrotation Yrotation Zrotation
											JOINT mixamorig:RightHandPinky4
											{
												OFFSET -5.218353 0.000000 0.000000
												CHANNELS 3 Xrotation Yrotation Zrotation
												End Site
												{
													OFFSET 0.602097 5.118835 0.816273
												}
											}
										}
									}
								}
							}
						}
					}
				}
			}
		}
	}
	JOINT mixamorig:LeftUpLeg
	{
		OFFSET 18.168400 -13.561905 -0.039000
		CHANNELS 3 Xrotation Yrotation Zrotation
		JOINT mixamorig:LeftLeg
		{
			OFFSET 0.577358 -80.825211 -3.695000
			CHANNELS 3 Xrotation Yrotation Zrotation
			JOINT mixamorig:LeftFoot
			{
				OFFSET -0.577356 -83.370262 -6.520700
				CHANNELS 3 Xrotation Yrotation Zrotation
				JOINT mixamorig:LeftToeBase
				{
					OFFSET 0.750401 -20.798306 25.135401
					CHANNELS 3 Xrotation Yrotation Zrotation
					JOINT mixamorig:LeftToe_End
					{
						OFFSET -0.000500 0.001200 19.917799
						CHANNELS 3 Xrotation Yrotation Zrotation
						End Site
						{
							OFFSET 0.000000 19.917805 0.000000
						}
					}
				}
			}
		}
	}
	JOINT mixamorig:RightUpLeg
	{
		OFFSET -18.162500 -13.585098 -0.041000
		CHANNELS 3 Xrotation Yrotation Zrotation
		JOINT mixamorig:RightLeg
		{
			OFFSET -0.595024 -80.945297 -3.631900
			CHANNELS 3 Xrotation Yrotation Zrotation
			JOINT mixamorig:RightFoot
			{
				OFFSET 0.595024 -83.218193 -6.561200
				CHANNELS 3 Xrotation Yrotation Zrotation
				JOINT mixamorig:RightToeBase
				{
					OFFSET -0.753601 -20.807106 25.115000
					CHANNELS 3 Xrotation Yrotation Zrotation
					JOINT mixamorig:RightToe_End
					{
						OFFSET 0.000299 0.001700 19.918200
						CHANNELS 3 Xrotation Yrotation Zrotation
						End Site
						{
							OFFSET 0.000000 19.918203 0.000000
						}
					}
				}
			}
		}
	}
}
MOTION
Frames: 4
Frame Time: 0.033333
-8.678958 202.245407 -2.096622 -5.603626 2.051711 1.949360 6.326852 -2.287681 -4.409286 4.356715 -0.659279 0.174210 0.984620 -0.772083 0.173778 -5.488331 1.567585 2.855371 3.889607 -1.810800 -3.117620 -0.000000 0.000000 0.000000 -0.000000 0.000000 0.000000 -0.000000 0.000000 0.000000 1.278212 -3.388854 -2.693000 6.035628 -16.209707 -76.974750 0.000007 -16.556652 -0.000014 -24.915337 2.381331 5.872474 0.363322 4.231691 -15.713887 1.096594 3.414192 -35.603768 0.661927 2.707002 -27.476552 -0.000000 0.000000 -0.000000 6.446501 11.226801 14.548878 6.086332 12.903787 1.401051 -12.370443 -22.192231 6.306102 -0.000002 -0.000000 -0.000003 0.295175 3.989771 -16.126239 0.150677 1.321475 -13.009150 0.150675 1.321477 -13.009157 -0.000001 -0.000000 -0.000001 0.658632 4.943429 -23.589353 1.316933 3.702060 -39.152953 0.941559 3.186936 -32.911526 -0.000000 0.000000 0.000001 0.610476 4.849133 -22.042308 1.400622 3.802316 -40.431803 1.004959 3.282685 -34.035031 0.000000 0.000000 0.000000 0.559057 7.249562 10.586395 -0.893085 -6.571925 72.076828 -0.000000 11.079250 0.000008 7.672105 7.919136 -13.911749 2.772671 -6.512919 65.430091 3.890263 -4.593737 80.511449 3.890252 -4.593722 80.511435 0.000001 -0.000000 -0.000000 13.625287 -5.511718 2.432795 6.358369 -14.447600 -2.112211 -5.504773 -5.510961 -14.718518 -0.000001 -0.000001 0.000000 2.772669 -6.512914 65.430091 3.890243 -4.593700 80.511463 3.890255 -4.593725 80.511422 0.000002 -0.000001 0.000003 2.772677 -6.512926 65.430084 3.890264 -4.593733 80.511470 3.890238 -4.593705 80.511422 0.000000 -0.000000 0.000000 2.772668 -6.512908 65.430091 3.890259 -4.593729 80.511456 3.890247 -4.593716 80.511435 -0.000001 0.000000 -0.000001 -6.104664 7.996986 2.030082 16.367399 -0.960604 0.767203 -4.947818 -4.258391 -2.816633 -1.772972 0.000001 -0.000001 0.000000 -0.000000 0.000000 -6.553078 -14.848662 -5.580241 13.207047 5.205539 -0.360326 -1.973358 -0.199612 0.869777 -2.195937 -0.000003 0.000000 0.000000 -0.000001 0.000000 
-8.690817 202.267914 -2.043394 -5.592450 2.112297 1.906514 6.303337 -2.278435 -4.310137 4.355686 -0.661946 0.154690 0.982787 -0.774876 0.154239 -5.463382 1.569331 2.859335 3.926828 -1.804643 -3.155989 -0.000000 0.000000 0.000000 -0.000000 0.000000 0.000000 -0.000000 0.000000 0.000000 1.299606 -3.386120 -2.684398 5.904533 -16.252536 -77.042157 -0.000000 -16.288324 0.000017 -24.916335 2.251350 5.815133 0.368096 4.245790 -15.859272 1.105274 3.426263 -35.749289 0.668808 2.720180 -27.621910 -0.000000 0.000001 0.000001 6.446176 11.225926 14.548805 6.085871 12.902975 1.400849 -12.370717 -22.193079 6.305778 0.000002 0.000001 0.000000 0.299332 4.004044 -16.271555 0.154042 1.335952 -13.154281 0.154041 1.335952 -13.154253 -0.000001 -0.000000 0.000001 0.665222 4.956778 -23.734945 1.326351 3.713573 -39.298607 0.949665 3.199404 -33.057002 -0.000000 0.000001 -0.000000 0.616825 4.862603 -22.187875 1.410298 3.813618 -40.577444 1.013306 3.294987 -34.180534 -0.000001 0.000000 0.000000 0.578176 7.251917 10.591287 -0.963040 -6.558353 72.121211 -0.000002 10.970974 -0.000000 7.805669 7.965782 -13.868773 2.772675 -6.512917 65.430098 3.890264 -4.593738 80.511449 3.890253 -4.593724 80.511435 0.000002 0.000000 -0.000000 13.625290 -5.511719 2.432797 6.358373 -14.447600 -2.112216 -5.504771 -5.510962 -14.718516 -0.000002 -0.000001 -0.000004 2.772672 -6.512916 65.430091 3.890242 -4.593698 80.511463 3.890255 -4.593723 80.511422 0.000001 -0.000001 0.000001 2.772676 -6.512927 65.430091 3.890264 -4.593731 80.511476 3.890239 -4.593704 80.511422 -0.000001 -0.000000 0.000000 2.772669 -6.512910 65.430098 3.890259 -4.593727 80.511463 3.890248 -4.593718 80.511435 -0.000001 0.000000 0.000001 -6.112606 7.967749 2.103974 16.357734 -0.835740 0.741400 -4.949978 -4.425121 -2.830679 -1.774360 0.000004 0.000000 0.000000 -0.000000 0.000000 -6.392397 -14.889905 -5.492906 12.966604 5.159855 -0.345609 -1.895024 -0.200064 0.869058 -2.199557 -0.000009 0.000000 0.000000 -0.000001 -0.000000 
-8.702848 202.284378 -1.999384 -5.585288 2.172435 1.848877 6.270710 -2.272649 -4.202699 4.354141 -0.664660 0.135547 0.982147 -0.777691 0.135058 -5.443078 1.570572 2.863241 3.960813 -1.778440 -3.185058 0.000000 0.000000 0.000000 0.000000 0.000000 0.000000 0.000000 0.000000 0.000000 1.320153 -3.384184 -2.674714 5.833411 -16.295535 -77.081902 0.000004 -16.143389 0.000006 -24.930378 2.192426 5.793515 0.372792 4.259559 -16.001386 1.113792 3.438046 -35.891609 0.675568 2.733043 -27.764002 0.000001 -0.000000 -0.000000 6.445856 11.225055 14.548691 6.085403 12.902168 1.400700 -12.370985 -22.193930 6.305437 0.000000 0.000001 -0.000003 0.303427 4.017985 -16.413600 0.157366 1.350094 -13.296131 0.157364 1.350093 -13.296095 -0.000000 0.000000 0.000000 0.671698 4.969811 -23.877281 1.335586 3.724805 -39.440972 0.957617 3.211566 -33.199210 0.000000 -0.000000 -0.000000 0.623065 4.875757 -22.330163 1.419784 3.824642 -40.719873 1.021498 3.306995 -34.322763 0.000000 0.000000 0.000001 0.598399 7.254831 10.605675 -1.027059 -6.566475 72.156932 -0.000000 10.895242 0.000022 7.945030 7.977182 -13.814061 2.772669 -6.512919 65.430091 3.890262 -4.593738 80.511449 3.890251 -4.593724 80.511442 0.000000 -0.000000 -0.000000 13.625287 -5.511720 2.432800 6.358368 -14.447605 -2.112215 -5.504774 -5.510959 -14.718511 -0.000001 -0.000001 -0.000000 2.772672 -6.512915 65.430091 3.890245 -4.593701 80.511463 3.890253 -4.593725 80.511429 0.000001 -0.000000 -0.000001 2.772678 -6.512927 65.430084 3.890262 -4.593734 80.511470 3.890238 -4.593703 80.511422 0.000000 0.000000 -0.000001 2.772670 -6.512908 65.430091 3.890256 -4.593726 80.511463 3.890248 -4.593718 80.511435 0.000001 0.000001 -0.000002 -6.138968 7.932620 2.193585 16.389070 -0.720355 0.715066 -4.972848 -4.578440 -2.845211 -1.775788 -0.000003 0.000001 0.000000 0.000000 -0.000000 -6.246569 -14.920248 -5.395704 12.718733 5.109628 -0.331583 -1.784262 -0.200554 0.869079 -2.209394 -0.000005 -0.000000 -0.000000 -0.000001 -0.000000 
-8.710901 202.301865 -1.951960 -5.578130 2.241734 1.796735 6.252835 -2.275389 -4.098554 4.352039 -0.667439 0.116792 0.981520 -0.780558 0.116255 -5.430677 1.571378 2.867159 3.998623 -1.731485 -3.200995 0.000000 0.000000 0.000000 0.000000 0.000000 0.000000 0.000000 0.000000 0.000000 1.339555 -3.382957 -2.664109 5.747987 -16.341199 -77.122794 0.000000 -15.990945 -0.000007 -24.937623 2.122590 5.767845 0.377372 4.272858 -16.138762 1.122056 3.449412 -36.029162 0.682133 2.745465 -27.901362 0.000001 0.000000 0.000002 6.445536 11.224179 14.548593 6.084937 12.901359 1.400552 -12.371247 -22.194766 6.305126 0.000000 0.000000 -0.000001 0.307424 4.031453 -16.550943 0.160616 1.363759 -13.433239 0.160612 1.363758 -13.433226 -0.000001 -0.000000 0.000002 0.677991 4.982395 -24.014887 1.344537 3.735639 -39.578597 0.965334 3.223309 -33.336699 -0.000000 -0.000000 -0.000000 0.629129 4.888456 -22.467706 1.428981 3.835274 -40.857556 1.029446 3.318586 -34.460278 0.000000 0.000001 0.000001 0.615751 7.257239 10.623392 -1.110351 -6.582679 72.184991 -0.000000 10.783014 -0.000012 8.080573 8.014652 -13.767473 2.772672 -6.512917 65.430098 3.890263 -4.593737 80.511449 3.890252 -4.593723 80.511442 0.000003 -0.000000 -0.000001 13.625286 -5.511719 2.432794 6.358368 -14.447600 -2.112208 -5.504774 -5.510959 -14.718515 0.000001 -0.000001 -0.000005 2.772670 -6.512914 65.430091 3.890243 -4.593699 80.511463 3.890255 -4.593723 80.511422 -0.000002 -0.000001 0.000000 2.772677 -6.512927 65.430084 3.890264 -4.593731 80.511470 3.890239 -4.593705 80.511415 -0.000002 -0.000000 0.000002 2.772668 -6.512909 65.430098 3.890260 -4.593729 80.511449 3.890248 -4.593715 80.511435 -0.000001 -0.000000 -0.000001 -6.159421 7.895828 2.272607 16.412405 -0.584868 0.685763 -4.993761 -4.757674 -2.856038 -1.777250 0.000001 -0.000000 -0.000000 -0.000000 0.000000 -6.088911 -14.965334 -5.318007 12.466081 5.047634 -0.317859 -1.681653 -0.200847 0.882670 -2.219789 -0.000001 0.000000 0.000000 0.000000 0.000000 
